<?xml version="1.0" standalone="no"?>
<!DOCTYPE svg PUBLIC "-//W3C//DTD SVG 20010904//EN"
 "http://www.w3.org/TR/2001/REC-SVG-20010904/DTD/svg10.dtd">
<svg version="1.0" xmlns="http://www.w3.org/2000/svg"
 width="512.000000pt" height="512.000000pt" viewBox="0 0 512.000000 512.000000"
 preserveAspectRatio="xMidYMid meet">
<metadata>
Created by potrace 1.14, written by Peter Selinger 2001-2017
</metadata>
<g transform="translate(0.000000,512.000000) scale(0.100000,-0.100000)"
fill="#000000" stroke="none">
<path d="M2434 4990 c-3 -2 -26 -5 -52 -7 -44 -2 -173 -19 -224 -28 -12 -3
-38 -7 -58 -10 -19 -3 -78 -17 -130 -31 -52 -13 -102 -26 -110 -28 -68 -18
-220 -80 -345 -141 -333 -163 -605 -383 -844 -681 -51 -63 -172 -254 -225
-354 -45 -86 -131 -285 -141 -325 -1 -5 -5 -17 -8 -25 -5 -13 -39 -127 -42
-140 0 -3 -8 -39 -18 -80 -9 -41 -19 -88 -22 -105 -2 -16 -7 -41 -9 -55 -6
-26 -9 -59 -22 -190 -21 -215 0 -441 71 -770 13 -56 89 -269 132 -368 48 -109
53 -112 66 -36 3 16 11 54 17 84 6 30 14 66 16 80 3 14 21 92 41 173 33 140
35 165 18 227 -1 3 -7 39 -14 80 -7 41 -15 84 -17 95 -2 11 -7 63 -11 115 -16
230 3 448 58 650 11 41 22 86 25 100 9 42 94 250 137 335 191 373 523 702 902
893 137 69 316 139 401 156 10 3 48 11 84 19 36 9 83 18 105 21 22 3 51 8 65
11 108 23 452 23 580 1 14 -3 41 -7 60 -10 102 -16 216 -45 330 -84 595 -205
1070 -674 1280 -1268 28 -78 69 -231 75 -274 1 -8 5 -28 8 -45 33 -150 40
-479 12 -635 -2 -14 -7 -41 -9 -60 -3 -19 -8 -44 -10 -55 -95 -428 -275 -761
-569 -1051 -56 -55 -133 -126 -172 -156 -286 -227 -651 -382 -1015 -431 -119
-16 -460 -21 -460 -6 0 5 9 9 20 9 10 0 59 9 107 21 48 11 95 22 105 24 132
28 447 142 557 201 254 139 422 341 493 593 31 107 31 304 1 411 -86 306 -317
548 -639 670 l-61 24 71 56 c161 128 272 300 330 510 39 141 41 327 7 448 -5
17 -8 32 -6 32 2 0 -10 33 -27 73 -101 237 -292 404 -537 467 -89 24 -260 33
-334 19 -23 -4 -61 -10 -85 -14 -122 -18 -355 -111 -505 -202 -157 -94 -343
-255 -470 -405 -248 -294 -470 -713 -626 -1185 -40 -121 -98 -323 -116 -402
-2 -9 -11 -50 -20 -91 -9 -41 -19 -83 -21 -92 -16 -69 -45 -217 -48 -248 -2
-14 -6 -34 -9 -45 -3 -11 -8 -42 -12 -70 -3 -27 -10 -75 -15 -105 -6 -31 -19
-133 -30 -228 -11 -95 -23 -179 -26 -185 -5 -8 -4 -9 4 -2 5 6 26 75 46 155
57 226 114 430 178 635 41 134 129 387 152 440 8 17 22 53 31 80 10 28 22 54
27 59 4 6 8 16 8 23 0 21 149 335 217 458 50 89 97 170 105 180 5 6 30 42 56
82 132 200 305 385 497 531 6 4 33 21 60 38 316 195 654 246 896 136 107 -49
213 -178 236 -287 14 -66 5 -170 -21 -247 -21 -65 -93 -201 -115 -218 -3 -3
-20 -23 -36 -45 -49 -66 -184 -198 -285 -278 -52 -42 -109 -87 -126 -101 -18
-15 -36 -26 -41 -26 -6 0 -18 -8 -27 -19 -16 -18 -15 -19 36 -31 29 -7 58 -15
63 -19 6 -3 12 -6 15 -7 59 -9 284 -99 390 -156 246 -131 390 -284 440 -468
16 -59 21 -182 9 -245 -40 -219 -210 -402 -504 -544 -280 -135 -608 -243 -995
-328 -146 -31 -144 -31 -215 -44 -33 -5 -71 -12 -85 -15 -63 -11 -340 -53
-385 -59 -27 -3 -63 -8 -80 -11 -16 -2 -50 -7 -75 -9 -25 -3 -70 -8 -100 -11
-30 -4 -65 -7 -77 -7 -13 -1 -23 -5 -23 -9 0 -8 150 -11 534 -10 202 1 233 -1
265 -17 84 -43 291 -116 411 -146 46 -12 231 -46 270 -51 25 -2 79 -8 120 -13
71 -8 370 -6 435 2 17 3 57 8 90 11 399 48 848 240 1180 507 85 68 290 268
343 334 283 355 443 707 511 1120 28 168 34 241 33 390 -2 542 -186 1060 -528
1480 -114 140 -267 290 -393 385 -18 14 -38 30 -44 35 -7 6 -50 35 -97 66
-347 228 -728 358 -1160 395 -98 8 -299 11 -306 4z"/>
<path d="M828 1485 c-53 -174 -98 -345 -98 -370 0 -8 55 -69 123 -137 105
-107 161 -156 313 -275 40 -32 38 -33 314 30 52 11 97 21 100 22 49 11 70 18
69 23 0 4 -27 20 -60 36 -60 30 -244 147 -290 185 -201 167 -374 352 -455 487
-10 17 -11 17 -16 -1z"/>
</g>
</svg>
